 <svg  version="1.0" xmlns="http://www.w3.org/2000/svg"  width="900.000000pt" height="1080.000000pt" viewBox="0 0 900.000000 1080.000000"  preserveAspectRatio="xMidYMid meet">  <g transform="translate(0.000000,1080.000000) scale(0.100000,-0.100000)" fill="#19b5fe" stroke="none"> <path d="M1405 9495 c-22 -14 -51 -30 -64 -35 -14 -6 -57 -44 -96 -84 -59 -61 -73 -82 -79 -116 -9 -56 1 -104 35 -169 16 -30 29 -62 29 -71 0 -10 7 -23 15 -30 8 -7 15 -23 15 -37 0 -13 8 -34 17 -46 16 -22 17 -22 150 110 73 73 140 133 148 133 9 0 18 7 21 15 4 8 12 15 19 15 8 0 20 6 27 13 20 17 77 47 93 47 7 0 18 7 25 15 7 8 26 15 43 15 l31 0 -34 33 c-19 18 -55 49 -80 68 -25 20 -72 62 -105 92 -58 54 -62 56 -115 56 -41 0 -65 -6 -95 -24z"/> <path d="M7575 9231 c-194 -387 -470 -663 -801 -805 -146 -63 -198 -78 -334 -101 -71 -12 -202 -38 -264 -51 -34 -8 -119 -52 -196 -102 -65 -43 -172 -149 -215 -212 -16 -25 -33 -46 -37 -48 -5 -2 -8 -7 -8 -12 0 -4 -12 -29 -27 -56 -32 -56 -51 -104 -63 -154 -4 -19 -18 -71 -30 -115 -12 -44 -28 -146 -35 -228 -14 -152 -10 -191 21 -228 8 -8 14 -18 14 -22 0 -24 147 -216 221 -288 109 -106 224 -171 339 -190 66 -11 210 -2 264 17 21 8 47 14 58 14 11 0 34 6 51 14 18 8 59 22 92 31 33 9 105 41 160 70 218 115 251 133 282 151 241 144 292 187 418 358 69 93 163 275 200 386 13 41 34 102 46 135 12 33 25 96 29 140 4 44 13 127 20 185 14 119 8 414 -10 525 -6 39 -18 113 -26 165 -9 52 -20 113 -25 135 -30 120 -39 155 -54 210 -9 33 -21 79 -26 103 -6 23 -15 42 -20 42 -5 0 -24 -31 -44 -69z"/> <path d="M1976 9238 c-11 -6 -33 -14 -50 -19 -46 -12 -102 -33 -117 -45 -8 -6 -26 -14 -41 -18 -16 -3 -28 -11 -28 -16 0 -6 -5 -10 -11 -10 -6 0 -28 -13 -49 -30 -21 -16 -42 -30 -46 -30 -5 0 -22 -14 -38 -30 -16 -17 -34 -30 -40 -30 -7 0 -19 -8 -27 -17 -9 -10 -38 -38 -65 -63 -60 -56 -133 -138 -145 -165 -5 -11 -20 -38 -34 -60 -39 -64 -34 -107 20 -168 25 -29 45 -56 45 -62 1 -5 14 -21 30 -35 17 -13 30 -29 30 -35 0 -6 13 -25 29 -43 16 -17 51 -60 77 -94 26 -35 56 -71 66 -81 10 -10 26 -30 35 -45 21 -32 93 -122 128 -160 14 -15 28 -35 31 -44 3 -10 10 -18 15 -18 5 0 9 -4 9 -10 0 -5 20 -31 45 -57 24 -26 45 -53 45 -60 0 -7 6 -16 13 -20 7 -4 37 -39 67 -78 29 -38 57 -71 62 -73 4 -2 8 -10 8 -17 0 -7 7 -15 15 -19 8 -3 15 -12 15 -21 0 -14 76 -116 105 -140 7 -5 34 -39 61 -75 27 -36 59 -76 71 -90 13 -14 23 -28 23 -32 0 -4 8 -15 18 -25 10 -10 40 -47 67 -83 27 -36 55 -71 62 -78 7 -7 34 -41 60 -75 26 -34 52 -67 58 -74 13 -15 16 -19 97 -123 37 -47 74 -92 83 -101 8 -9 15 -19 15 -22 0 -4 8 -15 18 -25 27 -29 55 -65 74 -94 10 -15 26 -35 36 -45 10 -10 40 -47 67 -83 27 -36 54 -70 60 -76 5 -7 22 -27 36 -45 15 -19 57 -71 93 -116 36 -45 66 -85 66 -88 0 -3 8 -13 18 -23 9 -10 28 -33 42 -51 14 -18 41 -52 60 -76 19 -23 53 -66 75 -95 51 -66 71 -91 88 -110 7 -8 29 -35 47 -60 19 -25 38 -46 42 -48 15 -7 8 -44 -12 -69 -10 -14 -49 -58 -86 -99 -36 -40 -76 -86 -88 -102 -11 -16 -28 -35 -36 -44 -37 -36 -395 -455 -520 -607 -47 -57 -101 -123 -120 -146 -19 -23 -60 -73 -90 -110 -30 -38 -74 -89 -97 -114 -23 -26 -59 -67 -80 -92 -85 -103 -113 -136 -151 -184 -22 -27 -71 -89 -109 -136 -39 -47 -86 -110 -106 -140 -20 -30 -46 -65 -59 -78 -13 -14 -48 -57 -78 -97 -30 -39 -100 -127 -154 -195 -183 -227 -291 -363 -311 -391 -30 -40 -147 -190 -167 -213 -9 -11 -59 -74 -110 -141 -51 -66 -145 -187 -208 -269 -63 -81 -126 -162 -140 -181 -78 -102 -245 -320 -256 -333 -8 -9 -24 -30 -36 -47 -49 -68 -140 -184 -149 -190 -5 -3 -9 -9 -9 -15 0 -17 33 -9 82 21 26 17 51 30 54 30 2 0 52 27 111 60 58 33 108 60 110 60 5 0 424 254 550 333 45 29 117 74 160 101 43 27 94 62 114 78 20 15 39 28 42 28 3 0 36 21 74 47 37 25 118 80 178 121 61 41 120 82 131 91 12 9 30 22 40 29 11 7 57 39 103 72 46 33 88 60 93 60 5 0 14 5 21 10 7 6 116 88 242 182 127 95 235 176 240 180 14 11 82 64 191 148 50 38 122 98 160 131 38 34 101 87 139 117 39 31 75 61 81 67 6 5 42 35 79 65 118 96 330 273 335 280 3 4 34 31 70 61 36 29 83 70 105 90 22 20 114 103 205 185 91 81 183 165 205 185 98 91 112 97 136 52 8 -15 21 -35 29 -43 27 -29 55 -64 72 -92 10 -15 26 -35 36 -45 10 -10 41 -47 67 -83 61 -80 66 -87 86 -108 8 -9 30 -37 49 -62 18 -25 38 -49 45 -55 6 -5 33 -39 60 -75 27 -36 55 -71 62 -78 7 -7 34 -41 60 -75 26 -34 52 -67 58 -73 12 -14 37 -46 150 -189 48 -60 97 -122 111 -137 13 -14 24 -31 24 -37 0 -5 6 -14 13 -18 7 -4 48 -55 92 -113 43 -58 81 -107 85 -110 3 -3 43 -52 89 -110 45 -58 94 -120 109 -139 28 -35 103 -121 135 -153 9 -10 17 -20 17 -22 0 -3 19 -25 42 -50 23 -26 46 -55 52 -65 15 -27 129 -165 138 -169 4 -2 8 -10 8 -17 0 -7 4 -15 9 -17 6 -1 36 -37 68 -79 81 -106 150 -192 190 -236 18 -21 33 -43 33 -48 0 -6 8 -17 18 -26 9 -8 31 -32 47 -53 17 -21 38 -48 49 -60 10 -11 25 -31 33 -43 32 -48 136 -23 274 65 63 41 109 75 109 83 0 4 9 10 20 14 11 3 38 24 61 46 22 21 43 39 45 39 10 0 217 216 225 235 5 11 15 28 21 37 9 12 10 22 3 32 -6 7 -28 40 -50 72 -22 32 -46 65 -52 72 -7 7 -13 16 -13 20 0 4 -14 23 -31 42 -17 19 -59 71 -92 115 -34 44 -72 91 -84 105 -13 14 -23 28 -23 31 0 3 -9 17 -21 30 -12 13 -42 51 -67 84 -69 90 -131 168 -145 185 -12 13 -44 55 -185 239 -48 62 -62 72 -62 44 0 -11 -8 -35 -17 -55 -21 -41 -103 -138 -117 -138 -5 0 -18 -8 -28 -17 -27 -24 -133 -23 -177 3 -32 18 -211 242 -211 264 0 5 -4 10 -9 10 -4 0 -29 30 -55 67 -26 38 -69 95 -96 128 -27 33 -49 63 -50 67 0 4 -13 22 -30 40 -16 18 -30 38 -30 45 0 6 -6 16 -13 20 -16 10 -77 100 -77 114 0 5 -4 9 -9 9 -5 0 -20 17 -32 38 -13 20 -27 42 -31 47 -31 38 -78 105 -78 109 0 5 -63 95 -105 151 -8 10 -15 25 -15 32 0 7 -4 13 -8 13 -4 0 -21 20 -36 45 -16 25 -33 45 -37 45 -5 0 -9 17 -9 38 0 33 9 48 56 100 75 83 193 172 228 172 25 0 29 21 7 36 -12 8 -21 22 -21 30 0 8 -4 14 -8 14 -10 0 -82 96 -82 110 0 5 -4 10 -8 10 -10 0 -82 96 -82 109 0 5 -3 11 -8 13 -10 4 -82 93 -82 102 0 4 -14 20 -31 37 -20 20 -29 37 -27 53 2 15 66 89 173 199 216 221 277 286 290 308 5 9 28 45 49 80 51 83 144 263 162 314 27 73 54 183 49 197 -6 15 -15 21 -90 62 -62 35 -167 97 -180 108 -5 5 -26 20 -45 34 -54 38 -113 97 -145 145 -17 24 -32 46 -36 49 -3 3 -33 41 -67 85 -34 44 -72 93 -86 109 l-24 29 -48 -23 c-163 -75 -245 -120 -332 -179 -29 -20 -62 -41 -72 -47 -44 -25 -140 -105 -226 -189 -84 -83 -170 -159 -198 -177 -17 -11 -46 -9 -46 3 0 10 -78 117 -107 147 -7 7 -34 41 -60 75 -26 34 -58 73 -70 87 -52 60 -63 73 -63 79 0 4 -13 21 -29 39 -16 17 -51 60 -77 94 -27 35 -54 69 -61 76 -7 7 -34 41 -60 75 -61 80 -65 85 -84 105 -8 9 -30 37 -49 62 -18 25 -38 50 -45 55 -6 6 -33 39 -60 75 -27 36 -55 71 -62 78 -7 7 -34 41 -60 75 -56 73 -57 75 -84 107 -12 14 -55 70 -97 124 -41 54 -82 107 -91 116 -26 27 -55 63 -73 91 -9 14 -23 32 -30 40 -8 8 -60 73 -117 144 -56 72 -113 141 -125 155 -12 14 -44 54 -71 90 -27 36 -55 71 -62 78 -7 7 -34 41 -60 75 -26 34 -53 68 -60 75 -7 7 -34 41 -59 75 -26 34 -52 67 -59 72 -6 6 -18 20 -26 32 -9 13 -41 51 -72 85 -96 107 -157 182 -157 196 0 6 -4 12 -10 12 -5 0 -28 24 -50 53 -86 113 -102 127 -140 127 -19 0 -44 -6 -54 -12z"/> <path d="M5625 4660 c-84 -11 -195 -111 -195 -175 0 -24 51 -106 121 -196 16 -20 29 -42 29 -48 0 -6 4 -11 9 -11 5 0 20 -17 32 -37 13 -21 49 -73 81 -115 32 -42 58 -82 58 -87 0 -6 3 -11 8 -11 4 0 18 -17 32 -38 14 -20 50 -71 80 -112 30 -41 60 -82 65 -92 14 -22 96 -140 150 -213 24 -33 61 -85 81 -115 20 -30 53 -70 72 -87 71 -68 167 -31 225 86 26 52 22 96 -15 150 -17 25 -46 66 -63 91 -17 25 -49 71 -73 102 -23 31 -42 62 -42 68 0 5 -3 10 -7 10 -5 0 -19 17 -33 38 -41 61 -107 150 -124 167 -9 9 -16 22 -16 30 0 7 -7 15 -15 19 -8 3 -15 10 -15 16 0 6 -5 16 -10 23 -39 46 -50 61 -50 68 0 4 -13 23 -30 41 -16 18 -30 36 -30 41 0 4 -27 44 -60 87 -33 43 -60 82 -60 85 0 3 -5 11 -10 18 -27 31 -110 147 -110 152 0 3 -10 16 -22 28 -19 18 -31 22 -63 17z"/> <path d="M7389 2144 c-29 -43 -159 -184 -170 -184 -4 0 -23 -15 -42 -32 -45 -43 -58 -51 -149 -105 -27 -16 -48 -31 -48 -35 0 -5 -11 -8 -25 -8 -13 0 -28 -6 -32 -12 -8 -12 -59 -40 -95 -52 -34 -10 -18 -24 55 -47 39 -12 79 -29 88 -36 8 -7 29 -13 45 -13 16 0 38 -7 48 -15 11 -8 28 -15 38 -15 16 0 70 -20 113 -43 11 -6 36 -14 55 -18 40 -8 166 -53 193 -69 15 -9 17 -5 17 42 0 29 -7 88 -15 131 -8 45 -15 136 -15 210 0 73 -5 150 -11 172 -6 22 -14 69 -17 104 l-7 65 -26 -40z"/> </g> </svg> 